<?xml version="1.0" encoding="UTF-8"?>
<svg width="640" height="480" xmlns="http://www.w3.org/2000/svg" xmlns:svg="http://www.w3.org/2000/svg">
 <title>beautiful swirls underline</title>
 <g>
  <title>Layer 1</title>
  <g id="layer1" opacity="0.8">
   <path stroke-linecap="square" stroke-linejoin="round" id="path2389" fill="none" fill-rule="evenodd" stroke="#2976c4" stroke-width="1px" d="m306.00912,292.39661c28.55051,-14.87189 43.14872,-15.05384 53.79383,-11.47104c-16.00775,4.91391 -33.94,12.6167 -53.61133,24.01132l-0.017,0.08484c21.19406,-11.04001 40.2461,-18.32392 56.98029,-22.80878c5.4953,2.37094 10.10196,5.5347 15.53222,7.6293c45.42157,26.93885 72.17475,12.96012 69.00354,5.18286c3.56571,-12.46444 -28.58099,-31.83407 -86.49969,-14.51544c-10.77533,-4.52051 -25.65537,-5.25848 -55.18161,11.84448l-0.00024,0.04245l-0.00001,0.00001zm58.23948,-10.47101c53.8283,-14.11957 83.38943,0.8482 83.08682,12.43725c-0.02628,-0.03887 -0.05359,-0.07885 -0.08087,-0.11724c0.0267,0.05163 0.03994,0.10482 0.06405,0.1575c-0.03323,1.03985 -0.29458,2.04986 -0.8136,3.01126c0.49109,-0.66584 0.8599,-1.36472 1.10273,-2.08917c1.07318,7.48434 -24.22098,18.35113 -68.92038,-5.52277c-4.9487,-2.00287 -9.28504,-5.25546 -14.43876,-7.87683l0.00001,0zm82.2564,15.48877c-0.05538,0.07455 -0.10604,0.14862 -0.16455,0.22265l-0.00042,0.08493c0.06121,-0.10107 0.10946,-0.20486 0.16497,-0.30758zm0.74955,-3.16876c-0.02829,-0.05378 -0.04984,-0.10749 -0.08066,-0.16019l-0.00022,0.03976c0.02991,0.03949 0.05198,0.08045 0.08088,0.12043z"/>
   <path stroke-linecap="square" stroke-linejoin="round" id="path2401" fill="none" fill-rule="evenodd" stroke="#2976c4" stroke-width="1px" d="m306.63846,310.24454c-29.77423,16.56704 -44.9968,16.77493 -56.09601,12.79001c16.69394,-5.47629 35.39597,-14.05793 55.91126,-26.75046l0.02123,-0.09491c-22.1069,12.29876 -41.97622,20.41406 -59.42746,25.41336c-5.72959,-2.63764 -10.53163,-6.15811 -16.19374,-8.48801c-47.35438,-29.97348 -75.25659,-14.40164 -71.95225,-5.74405c-3.72272,13.87744 29.79236,35.42932 90.19348,16.12741c11.23413,5.02884 26.75052,5.84449 57.54324,-13.20614l0.00025,-0.04721zm-60.7316,11.67804c-56.13457,15.73895 -86.95499,-0.91303 -86.6349,-13.8154c0.02676,0.04315 0.05508,0.08789 0.08391,0.13104c-0.02825,-0.05747 -0.04145,-0.117 -0.0671,-0.17554c0.03534,-1.15768 0.3082,-2.28232 0.85007,-3.35241c-0.51274,0.74108 -0.89749,1.51898 -1.15059,2.32568c-1.1167,-8.33191 25.26296,-20.43854 71.86527,6.1232c5.1598,2.228 9.68009,5.84732 15.05334,8.76343zm-85.76802,-17.21231c0.05748,-0.08362 0.11031,-0.16614 0.1709,-0.24814l0.00047,-0.095c-0.06334,0.11273 -0.11372,0.22876 -0.17137,0.34314zm-0.78297,3.52795c0.02929,0.05908 0.05181,0.1192 0.08421,0.17831l0.00023,-0.04458c-0.03144,-0.0437 -0.05455,-0.08948 -0.08444,-0.13373z"/>
   <path stroke-linecap="square" stroke-linejoin="round" id="path2423" fill="none" fill-rule="evenodd" stroke="#2976c4" stroke-width="1px" d="m298.59973,308.96405c50.55921,17.45404 76.51889,17.88507 95.5029,13.94656c-28.39743,-5.86691 -60.17758,-14.95483 -94.99661,-28.29467l-0.0286,-0.09729c37.53272,12.95684 71.30991,21.5827 101.00592,26.97006c9.80741,-2.62995 18.04557,-6.18012 27.73358,-8.49426c81.17441,-30.13651 128.55173,-13.73163 122.79453,-4.87967c6.16071,14.31808 -51.29132,35.99517 -154.04648,15.29281c-19.22909,5.00913 -45.70355,5.62717 -97.96548,-14.39468l0.00024,-0.04886zm103.42465,12.86975c95.52515,16.97861 148.31491,0.3006 147.94504,-12.96692c-0.04687,0.04434 -0.09381,0.08975 -0.14593,0.13355c0.05218,-0.05918 0.07324,-0.12012 0.12023,-0.17932c-0.04595,-1.19108 -0.49682,-2.35025 -1.40454,-3.45871c0.86267,0.76953 1.50733,1.57455 1.92871,2.40759c2.0196,-8.54865 -42.807,-21.36993 -122.65115,5.27014c-8.82983,2.21668 -16.5885,5.87235 -25.79236,8.79367zm146.5148,-16.4714c-0.0982,-0.08652 -0.18603,-0.17194 -0.28936,-0.25739l0.00048,-0.09769c0.1084,0.11737 0.19086,0.23673 0.28888,0.35508zm1.28431,3.63803c-0.047,0.06027 -0.08881,0.12167 -0.14618,0.18185l0.00018,-0.04562c0.05731,-0.04483 0.09906,-0.09134 0.146,-0.13623z"/>
   <path stroke-linecap="square" stroke-linejoin="round" stroke="#2976c4" id="path2425" fill="none" fill-rule="evenodd" stroke-width="1px" d="m299.88101,294.93899c-50.561,-17.45401 -76.52101,-17.88501 -95.505,-13.94598c28.39699,5.866 60.177,14.95398 94.99698,28.29398l0.026,0.09802c-37.53,-12.957 -71.30799,-21.58301 -101.00399,-26.97c-9.807,2.629 -18.046,6.17999 -27.734,8.49399c-81.1724,30.13601 -128.5487,13.73101 -122.7956,4.87899c-6.1603,-14.31799 51.2946,-35.99499 154.04759,-15.29199c19.23002,-5.01001 45.70401,-5.62799 97.96802,14.39401l0,0.04898zm-103.42702,-12.86999c-95.52499,-16.978 -148.31639,-0.29999 -147.94659,12.96701c0.0463,-0.04401 0.0959,-0.08902 0.1454,-0.133c-0.0491,0.05899 -0.0733,0.12 -0.1166,0.17899c0.0439,1.19101 0.4937,2.35001 1.4035,3.45898c-0.8643,-0.76999 -1.5094,-1.57498 -1.9308,-2.40799c-2.0175,8.54902 42.8086,21.37 122.6531,-5.26999c8.829,-2.21701 16.588,-5.872 25.792,-8.794l0,0l-0.00001,0zm-146.51429,16.47198c0.0971,0.08603 0.186,0.17203 0.2883,0.25702l-0.0005,0.098c-0.1068,-0.11701 -0.1908,-0.237 -0.2878,-0.35502zm-1.2869,-3.63797c0.0506,-0.06002 0.0898,-0.122 0.1457,-0.182l-0.0003,0.04599c-0.0542,0.044 -0.0938,0.091 -0.1454,0.13601z"/>
  </g>
 </g>
</svg>